:FULLY-SPECIFIED
:FORCE-ALL-JOINTS-BE-3DOF
:DEGREES
408
root 4.40644 16.1963 -11.3454 3.87161 -32.3538 -4.3268
lfemur -31.5696 4.91866 -6.99008
ltibia 44.7014 -0 0
lfoot -11.2266 12.0753 0.481481
ltoes -1.98985 0 0
rfemur -31.3698 -19.9222 23.0145
rtibia 76.569 -0 0
rfoot 3.5829 -6.68781 0.011901
rtoes 29.028 -0 0
lowerback 4.88285 4.09626 0.520699
upperback 1.51884 5.44604 -1.5065
thorax -0.990262 2.71648 -2.12798
lowerneck -6.4258 1.57907 6.88897
upperneck 3.78778 1.4375 1.14034
head 2.366 0.852629 -0.766503
lclavicle 7.95139e-015 1.59028e-014 0
lhumerus -44.7722 -19.8207 94.519
lradius 51.8794 -0 0
lwrist 18.4849 0 0
lhand -16.8441 3.65414 0.00158465
lfingers 7.12502 -0 0
lthumb 9.38577 33.4252 0.00152267
rclavicle 7.95139e-015 1.59028e-014 0
rhumerus -45.7555 8.9443 -92.0501
rradius 62.8441 -0 0
rwrist 8.61246 0 0
rhand -20.2785 -19.6586 0.209848
rfingers 7.12502 -0 0
rthumb 6.07023 -49.4751 0.202254
409
root 4.31739 16.1629 -11.2724 3.99289 -31.3762 -4.67502
lfemur -31.8786 5.03754 -6.49413
ltibia 45.329 -0 0
lfoot -11.8958 11.319 0.579895
ltoes -2.54479 0 0
rfemur -30.7156 -19.0085 22.1824
rtibia 75.1242 -0 0
rfoot 3.0035 -6.70954 0.0143279
rtoes 26.1042 -0 0
lowerback 4.90963 3.98212 0.684374
upperback 1.50925 5.30388 -1.42032
thorax -1.0181 2.64489 -2.12433
lowerneck -6.44488 1.5738 6.89691
upperneck 3.76471 1.43203 1.089
head 2.36243 0.84798 -0.784735
lclavicle 7.95139e-015 1.59028e-014 0
lhumerus -44.6424 -20.1851 94.638
lradius 51.8987 -0 0
lwrist 18.1504 0 0
lhand -16.857 3.52339 0.00190746
lfingers 7.12502 -0 0
lthumb 9.37337 33.295 0.00183286
rclavicle 7.95139e-015 1.59028e-014 0
rhumerus -45.9041 8.50689 -91.9551
rradius 63.05 -0 0
rwrist 8.77378 0 0
rhand -20.8473 -20.0484 0.252663
rfingers 7.12502 -0 0
rthumb 5.52106 -49.8643 0.243516
410
root 4.22835 16.1294 -11.1995 4.10604 -30.3979 -5.01729
lfemur -32.1867 5.15908 -5.99875
ltibia 45.9566 -0 0
lfoot -12.5662 10.5616 0.669462
ltoes -3.09973 0 0
rfemur -30.079 -18.086 21.3659
rtibia 73.6795 -0 0
rfoot 2.42411 -6.73129 0.0165351
rtoes 23.1805 -0 0
lowerback 4.93609 3.86791 0.847972
upperback 1.49945 5.16173 -1.33414
thorax -1.04595 2.5733 -2.12065
lowerneck -6.46396 1.56853 6.90485
upperneck 3.74165 1.42653 1.03767
head 2.35887 0.84333 -0.802966
lclavicle 7.95139e-015 1.59028e-014 0
lhumerus -44.513 -20.5498 94.7565
lradius 51.9181 -0 0
lwrist 17.8158 0 0
lhand -16.8698 3.39263 0.00220094
lfingers 7.12502 -0 0
lthumb 9.36096 33.1647 0.00211485
rclavicle 7.95139e-015 1.59028e-014 0
rhumerus -46.0532 8.06973 -91.859
rradius 63.2559 -0 0
rwrist 8.9351 0 0
rhand -21.4163 -20.4386 0.291605
rfingers 7.12502 -0 0
rthumb 4.97161 -50.2538 0.281045
411
root 4.13931 16.096 -11.1265 4.21137 -29.4192 -5.35401
lfemur -32.4938 5.28327 -5.50393
ltibia 46.5843 -0 0
lfoot -13.2377 9.80318 0.750153
ltoes -3.65468 0 0
rfemur -29.4594 -17.1552 20.5643
rtibia 72.2347 -0 0
rfoot 1.84471 -6.75307 0.0185221
rtoes 20.2568 -0 0
lowerback 4.96221 3.75362 1.0115
upperback 1.48944 5.0196 -1.24796
thorax -1.07379 2.50171 -2.11693
lowerneck -6.48304 1.56326 6.91279
upperneck 3.71859 1.42102 0.986345
head 2.3553 0.838679 -0.821197
lclavicle 7.95139e-015 1.59028e-014 0
lhumerus -44.3841 -20.9148 94.8743
lradius 51.9374 -0 0
lwrist 17.4813 0 0
lhand -16.8827 3.26187 0.00246507
lfingers 7.12502 -0 0
lthumb 9.34856 33.0345 0.00236865
rclavicle 7.95139e-015 1.59028e-014 0
rhumerus -46.203 7.63282 -91.7618
rradius 63.4618 -0 0
rwrist 9.09642 0 0
rhand -21.9856 -20.8292 0.326669
rfingers 7.12502 -0 0
rthumb 4.42192 -50.6437 0.314836
412
root 4.05026 16.0626 -11.0535 4.30917 -28.4399 -5.68551
lfemur -32.7998 5.41009 -5.00968
ltibia 47.2119 -0 0
lfoot -13.9103 9.04384 0.821943
ltoes -4.20962 0 0
rfemur -28.8565 -16.2162 19.7771
rtibia 70.79 -0 0
rfoot 1.26532 -6.77486 0.0202889
rtoes 17.333 -0 0
lowerback 4.988 3.63925 1.17495
upperback 1.47922 4.87749 -1.16176
thorax -1.10164 2.43013 -2.11317
lowerneck -6.50212 1.558 6.92073
upperneck 3.69554 1.41548 0.935019
head 2.35174 0.834027 -0.839428
lclavicle 7.95139e-015 1.59028e-014 0
lhumerus -44.2558 -21.28 94.9916
lradius 51.9567 -0 0
lwrist 17.1468 0 0
lhand -16.8955 3.13112 0.00269986
lfingers 7.12502 -0 0
lthumb 9.33615 32.9043 0.00259426
rclavicle 7.95139e-015 1.59028e-014 0
rhumerus -46.3533 7.19616 -91.6637
rradius 63.6678 -0 0
rwrist 9.25774 0 0
rhand -22.5551 -21.2201 0.35785
rfingers 7.12502 -0 0
rthumb 3.872 -51.0339 0.344884
413
root 3.96122 16.0291 -10.9805 4.3997 -27.4601 -6.01213
lfemur -33.1048 5.53953 -4.51602
ltibia 47.8395 -0 0
lfoot -14.5838 8.28369 0.884809
ltoes -4.76456 0 0
rfemur -28.2699 -15.2694 19.0039
rtibia 69.3452 -0 0
rfoot 0.685919 -6.79667 0.0218353
rtoes 14.4093 -0 0
lowerback 5.01346 3.52481 1.33833
upperback 1.46878 4.73539 -1.07556
thorax -1.12949 2.35854 -2.10938
lowerneck -6.5212 1.55273 6.92867
upperneck 3.67249 1.40992 0.883696
head 2.34818 0.829373 -0.857658
lclavicle 7.95139e-015 1.59028e-014 0
lhumerus -44.1279 -21.6455 95.1083
lradius 51.9761 -0 0
lwrist 16.8123 0 0
lhand -16.9084 3.00036 0.0029053
lfingers 7.12502 -0 0
lthumb 9.32374 32.7741 0.00279167
rclavicle 7.95139e-015 1.59028e-014 0
rhumerus -46.5043 6.75976 -91.5644
rradius 63.8737 -0 0
rwrist 9.41906 0 0
rhand -23.1248 -21.6113 0.385143
rfingers 7.12502 -0 0
rthumb 3.3219 -51.4244 0.371186
414
root 3.87217 15.9957 -10.9076 4.4832 -26.4799 -6.33419
lfemur -33.4087 5.67158 -4.02295
ltibia 48.4672 -0 0
lfoot -15.2581 7.52285 0.938731
ltoes -5.3195 0 0
rfemur -27.699 -14.3152 18.2441
rtibia 67.9005 -0 0
rfoot 0.106521 -6.81849 0.023161
rtoes 11.4856 -0 0
lowerback 5.03858 3.4103 1.50163
upperback 1.45813 4.5933 -0.989351
thorax -1.15735 2.28696 -2.10556
lowerneck -6.54029 1.54748 6.93661
upperneck 3.64944 1.40435 0.832375
head 2.34462 0.824719 -0.875888
lclavicle 7.95139e-015 1.59028e-014 0
lhumerus -44.0005 -22.0112 95.2243
lradius 51.9954 -0 0
lwrist 16.4778 0 0
lhand -16.9213 2.8696 0.00308139
lfingers 7.12502 -0 0
lthumb 9.31133 32.6439 0.00296087
rclavicle 7.95139e-015 1.59028e-014 0
rhumerus -46.6558 6.32362 -91.4641
rradius 64.0796 -0 0
rwrist 9.58038 0 0
rhand -23.6947 -22.0028 0.408545
rfingers 7.12502 -0 0
rthumb 2.77163 -51.8151 0.393737
415
root 3.78313 15.9623 -10.8346 4.55991 -25.4992 -6.65199
lfemur -33.7116 5.80623 -3.53047
ltibia 49.0948 -0 0
lfoot -15.933 6.76142 0.983692
ltoes -5.87445 0 0
rfemur -27.1435 -13.3538 17.4972
rtibia 66.4557 -0 0
rfoot -0.472876 -6.84032 0.024266
rtoes 8.56185 -0 0
lowerback 5.06338 3.29572 1.66487
upperback 1.44727 4.45123 -0.903132
thorax -1.18521 2.21538 -2.1017
lowerneck -6.55937 1.54222 6.94456
upperneck 3.6264 1.39875 0.781057
head 2.34106 0.820063 -0.894118
lclavicle 7.95139e-015 1.59028e-014 0
lhumerus -43.8735 -22.3771 95.3399
lradius 52.0148 -0 0
lwrist 16.1433 0 0
lhand -16.9341 2.73884 0.00322814
lfingers 7.12502 -0 0
lthumb 9.29892 32.5137 0.00310188
rclavicle 7.95139e-015 1.59028e-014 0
rhumerus -46.8081 5.88775 -91.3627
rradius 64.2855 -0 0
rwrist 9.7417 0 0
rhand -24.2648 -22.3944 0.428051
rfingers 7.12502 -0 0
rthumb 2.22121 -52.206 0.412534
